<svg width="161" height="38" viewBox="0 0 161 38" fill="none" xmlns="http://www.w3.org/2000/svg">
<mask id="mask0" mask-type="alpha" maskUnits="userSpaceOnUse" x="0" y="0" width="22" height="38">
<path fill-rule="evenodd" clip-rule="evenodd" d="M0.546116 9.77089L5.82936 0L7.64431 0.621558L7.98429 6.51523L21.7442 36.4357L20.6349 37.1922H14.2017L5.50615 35.4412L0.305664 23.2686L0.546116 9.77089Z" fill="#C4C4C4"/>
</mask>
<g mask="url(#mask0)">
<path fill-rule="evenodd" clip-rule="evenodd" d="M30.7289 26.9736C30.7289 31.96 28.9869 36.0628 17.6638 36.0628C6.34065 36.0628 4.59863 31.96 4.59863 26.9736C4.84749 23.1865 8.02046 18.9575 17.8504 18.9575C27.6182 18.9575 30.5423 23.2496 30.7289 26.9736Z" fill="#82B0BF"/>
<path fill-rule="evenodd" clip-rule="evenodd" d="M16.6121 29.1819C16.6121 25.6916 13.8199 22.8359 10.3296 22.8359C6.83933 22.8359 3.98364 25.6916 3.98364 29.1819C3.98364 32.6722 6.83933 35.4644 10.3296 35.4644C13.8199 35.4644 16.6121 32.6722 16.6121 29.1819Z" fill="white"/>
<path fill-rule="evenodd" clip-rule="evenodd" d="M31.2105 29.1185C31.2105 25.6282 28.4183 22.8359 24.928 22.8359C21.4377 22.8359 18.6455 25.6282 18.6455 29.1185C18.6455 32.6087 21.4377 35.4644 24.928 35.4644C28.4183 35.4644 31.2105 32.6087 31.2105 29.1185Z" fill="white"/>
<path fill-rule="evenodd" clip-rule="evenodd" d="M23.7222 31.1439C23.7222 30.3824 23.1511 29.7478 22.3261 29.7478C21.5646 29.7478 20.9935 30.3824 20.9935 31.1439C20.9935 31.9054 21.5646 32.54 22.3261 32.54C23.1511 32.54 23.7222 31.9054 23.7222 31.1439Z" fill="#323232"/>
<path fill-rule="evenodd" clip-rule="evenodd" d="M10.3231 22.8461C6.8328 22.8461 3.97711 25.7017 3.97711 29.192C3.97711 32.6189 6.72857 35.3898 10.1554 35.4532C2.85753 33.3591 5.62707 22.4653 11.5288 22.973C11.1481 22.9095 10.7038 22.8461 10.3231 22.8461ZM24.9214 22.3384C21.4311 22.3384 18.6583 25.652 18.6583 29.1423C18.6583 32.5691 21.418 35.4015 24.7814 35.465C17.4835 33.3708 20.3083 22.479 26.21 22.9867C25.7658 22.8598 25.3657 22.3384 24.9214 22.3384Z" fill="black" fill-opacity="0.14902"/>
<path fill-rule="evenodd" clip-rule="evenodd" d="M14.5815 31.1439C14.5815 30.3824 13.9469 29.7478 13.1854 29.7478C12.4238 29.7478 11.7892 30.3824 11.7892 31.1439C11.7892 31.9054 12.4238 32.54 13.1854 32.54C13.9469 32.54 14.5815 31.9054 14.5815 31.1439Z" fill="#323232"/>
<path fill-rule="evenodd" clip-rule="evenodd" d="M14.5017 30.6644C14.5017 30.4106 14.3113 30.2202 14.0574 30.2202C13.8036 30.2202 13.6132 30.4106 13.6132 30.6644C13.6132 30.8548 13.8036 31.0452 14.0574 31.0452C14.3113 31.0452 14.5017 30.8548 14.5017 30.6644Z" fill="white"/>
<path fill-rule="evenodd" clip-rule="evenodd" d="M25.0549 22.6123C27.4664 22.6123 29.4971 23.8815 30.7028 26.293C31.4009 27.5622 18.3916 32.7024 18.5186 29.7833C18.5186 29.0217 18.582 28.1333 18.8359 27.3718C19.407 25.6584 21.2473 22.8661 24.5472 22.6123C24.6742 22.6123 24.8645 22.6123 25.0549 22.6123Z" fill="#82B0BF"/>
<path fill-rule="evenodd" clip-rule="evenodd" d="M30.8409 26.4378C31.4755 27.9608 18.7201 32.9106 18.5931 29.9915C18.5931 29.8011 18.6566 30.1184 18.7835 30.1819C20.7508 31.0069 24.1141 29.8011 26.2083 28.7858C28.6832 27.5166 29.8255 26.7551 30.587 26.1839C30.714 26.057 30.7774 26.2474 30.8409 26.4378Z" fill="#52707A"/>
<path fill-rule="evenodd" clip-rule="evenodd" d="M10.3297 22.6372C7.85475 22.6372 5.82404 23.9064 4.6183 26.2544C3.92025 27.5871 16.993 32.6638 16.866 29.8082C16.8026 29.0466 16.8026 28.1582 16.4853 27.3332C15.9141 25.6833 14.0738 22.9545 10.8374 22.6372C10.647 22.6372 10.4566 22.6372 10.3297 22.6372Z" fill="#82B0BF"/>
<path fill-rule="evenodd" clip-rule="evenodd" d="M4.62133 26.4381C3.98673 27.9611 16.8691 32.8475 16.9325 29.9284C16.9325 29.8014 16.8691 30.1187 16.7421 30.1822C14.7749 31.0072 11.4115 29.8014 9.31735 28.7861C6.77896 27.5169 5.63669 26.7554 4.87517 26.1842C4.74825 26.1208 4.68479 26.2477 4.62133 26.4381Z" fill="#52707A"/>
<path fill-rule="evenodd" clip-rule="evenodd" d="M16.234 34.5647H18.709C18.709 34.5647 19.5339 36.4685 19.0263 37.0396C18.582 36.7223 16.4879 36.7223 15.8533 37.0396C15.4091 36.4685 16.234 34.5647 16.234 34.5647Z" fill="white"/>
<path fill-rule="evenodd" clip-rule="evenodd" d="M17.5032 34.9453C17.5032 35.5799 17.5032 36.151 17.4398 36.7856C17.3763 36.2145 17.4398 35.5799 17.4398 34.9453C17.4398 34.8818 17.4398 34.8184 17.5032 34.8184C17.5032 34.8184 17.5032 34.8818 17.5032 34.9453Z" fill="#737373"/>
<path fill-rule="evenodd" clip-rule="evenodd" d="M16.234 34.5646C16.234 34.5646 15.4091 36.4684 15.8533 37.0395C15.9802 36.9761 16.172 36.9207 16.3088 36.8958C16.4455 36.871 16.9676 36.8212 16.9676 36.8212C14.8295 36.2121 17.5667 33.4858 17.5032 34.5646H16.234Z" fill="black" fill-opacity="0.14902"/>
<path fill-rule="evenodd" clip-rule="evenodd" d="M19.7243 34.8184C19.0263 35.6434 18.5821 34.8819 17.5033 34.8819C16.4244 34.8819 15.9168 35.5165 15.4091 35.0088C14.9014 34.5011 14.4572 32.9146 17.4398 32.7877C20.4859 32.7242 20.4859 33.9934 19.7243 34.8184Z" fill="#638895"/>
<path fill-rule="evenodd" clip-rule="evenodd" d="M17.2804 32.838C14.4946 32.8996 14.9095 34.5008 15.3837 34.9935C15.6801 35.3014 15.8579 35.2398 16.2728 35.1167C15.0281 34.1929 16.1542 32.7149 17.5768 32.838C17.4582 32.838 17.399 32.838 17.2804 32.838Z" fill="black" fill-opacity="0.14902"/>
<path fill-rule="evenodd" clip-rule="evenodd" d="M19.0263 32.5973C19.0263 33.105 18.3917 33.3588 17.5668 33.3588C16.7418 33.3588 16.1072 33.105 16.1072 32.5973C16.1072 32.0262 16.7418 31.3281 17.5668 31.3281C18.3917 31.3281 19.0263 32.0262 19.0263 32.5973Z" fill="#323232"/>
<path fill-rule="evenodd" clip-rule="evenodd" d="M5.44592 26.6321L11.8554 27.0763C15.5995 27.6474 22.8339 27.3936 26.8319 26.6955L28.3549 27.2032C20.232 30.0589 13.4418 29.5512 5.44592 26.6321Z" fill="#6EBFDA" fill-opacity="0.14902"/>
<path fill-rule="evenodd" clip-rule="evenodd" d="M3.60553 25.4348C3.79591 18.2004 7.03236 11.9813 17.6936 9.6333C27.4664 11.7909 31.1471 16.6139 31.5278 25.1175C19.8512 21.6272 11.4111 22.8964 3.60553 25.4348Z" fill="#2E4952"/>
<path fill-rule="evenodd" clip-rule="evenodd" d="M15.1552 22.7061H20.1051C20.1051 22.7061 19.4705 9.82377 19.2801 9.50647C19.1532 9.25264 18.3917 8.87188 18.3917 8.87188C18.3917 8.87188 18.2647 7.85652 18.2013 6.96808C18.0744 6.14311 17.6936 5.95273 17.5667 6.96808C17.5032 8.0469 17.4398 8.87188 17.4398 8.87188C17.4398 8.87188 16.6782 9.25264 16.4879 9.50647C16.2975 9.82377 15.1552 22.7061 15.1552 22.7061Z" fill="#6F96A2"/>
<path fill-rule="evenodd" clip-rule="evenodd" d="M18.6455 15.4717C18.6455 14.9005 18.2013 14.4563 17.6301 14.4563C17.1224 14.4563 16.6782 14.9005 16.6782 15.4717C16.6782 16.0428 17.1224 16.487 17.6301 16.487C18.2013 16.487 18.6455 16.0428 18.6455 15.4717Z" fill="#5D8490"/>
<path fill-rule="evenodd" clip-rule="evenodd" d="M18.5186 12.743C18.5186 12.2987 18.2013 11.9814 17.7571 11.9814C17.3763 11.9814 16.9955 12.2987 16.9955 12.743C16.9955 13.1237 17.3763 13.441 17.7571 13.441C18.2013 13.441 18.5186 13.1237 18.5186 12.743Z" fill="#5D8490"/>
<path fill-rule="evenodd" clip-rule="evenodd" d="M18.3917 10.2044C18.3917 9.88714 18.1378 9.6333 17.8205 9.6333C17.5032 9.6333 17.2494 9.88714 17.2494 10.2044C17.2494 10.4583 17.5032 10.7121 17.8205 10.7121C18.1378 10.7121 18.3917 10.4583 18.3917 10.2044Z" fill="#5D8490"/>
<path fill-rule="evenodd" clip-rule="evenodd" d="M9.44379 23.2051L10.7764 24.4743C14.584 23.9032 19.0897 23.7128 23.1511 24.4108L24.5472 23.2686C24.5472 23.2686 18.2012 21.3648 9.44379 23.2051Z" fill="black" fill-opacity="0.14902"/>
<path fill-rule="evenodd" clip-rule="evenodd" d="M16.1099 28.6785H19.1431L18.448 31.2393H16.805L16.1099 28.6785Z" fill="#6F96A2"/>
<path fill-rule="evenodd" clip-rule="evenodd" d="M18.9628 19.2157C18.9628 18.5177 18.3916 17.9465 17.6936 17.9465C16.9955 17.9465 16.3609 18.5177 16.3609 19.2157C16.3609 19.9138 16.9955 20.5484 17.6936 20.5484C18.3916 20.5484 18.9628 19.9138 18.9628 19.2157Z" fill="#5D8490"/>
<path fill-rule="evenodd" clip-rule="evenodd" d="M3.54205 25.4347C1.63826 21.881 3.09783 18.7714 4.55741 19.6599C6.84196 23.5944 28.4183 23.5309 30.6394 19.5964C32.3528 18.5811 33.6854 20.4849 31.4643 25.3078C29.3067 30.1942 6.1439 29.4961 3.54205 25.4347C3.54205 25.4347 1.00366 21.3098 3.54205 25.4347Z" fill="#6F96A2"/>
<path fill-rule="evenodd" clip-rule="evenodd" d="M19.7878 25.4982C19.7878 26.7674 18.7724 27.7827 17.5667 27.7827C16.3609 27.7827 15.3456 26.7674 15.3456 25.4982C15.3456 24.2925 16.3609 23.2771 17.5667 23.2771C18.7724 23.2771 19.7878 24.2925 19.7878 25.4982Z" fill="#5D8490"/>
<path fill-rule="evenodd" clip-rule="evenodd" d="M12.9341 25.2445C12.9341 26.1329 12.2361 26.8309 11.4111 26.8309C10.5226 26.8309 9.82458 26.1329 9.82458 25.2445C9.82458 24.356 10.5226 23.658 11.4111 23.658C12.2361 23.658 12.9341 24.356 12.9341 25.2445Z" fill="#5D8490"/>
<path fill-rule="evenodd" clip-rule="evenodd" d="M7.7304 24.3561C7.7304 23.658 7.4131 23.0234 6.71504 23.0234C6.01698 23.0234 5.38239 23.658 5.38239 24.3561C5.38239 25.0541 6.01698 25.6887 6.71504 25.6887C7.4131 25.6887 7.7304 25.1176 7.7304 24.3561Z" fill="#5D8490"/>
<path fill-rule="evenodd" clip-rule="evenodd" d="M27.403 24.229C27.403 23.531 27.7203 22.8964 28.4183 22.8964C29.1798 22.8964 29.751 23.531 29.751 24.229C29.751 24.9906 29.1798 25.5617 28.4183 25.5617C27.7203 25.5617 27.403 24.9906 27.403 24.229ZM31.2105 22.8964C31.274 22.1983 31.3375 21.5637 32.0355 21.6272C32.797 21.6272 33.3047 22.2618 33.2413 23.0233C33.2413 23.7214 32.6067 24.2925 31.9086 24.229C31.2105 24.229 31.1471 23.6579 31.2105 22.9598V22.8964ZM4.1767 23.1502C4.11324 22.4522 4.11324 21.8176 3.41518 21.881C2.65366 21.881 2.14599 22.5156 2.20945 23.2137C2.20945 23.9752 2.78058 24.5463 3.5421 24.4829C4.24016 24.4194 4.24016 23.9117 4.1767 23.1502Z" fill="#5D8490"/>
<path fill-rule="evenodd" clip-rule="evenodd" d="M9.63423 13.949C5.63626 12.299 4.24015 10.3318 6.33432 7.47608C8.36503 4.55693 7.60351 0.876263 5.82664 0.114746C7.03238 2.58968 4.11323 4.68385 2.2729 7.34916C0.432564 10.0779 0.178725 16.0431 4.74783 18.0739C7.79389 17.4393 11.4746 17.1854 9.63423 13.949Z" fill="#DBDBDB"/>
<path fill-rule="evenodd" clip-rule="evenodd" d="M7.22275 12.7428C7.60351 12.1082 9.25346 12.8063 10.1419 13.5043C13.3783 15.662 8.99962 22.1349 5.38242 19.9138C4.24014 19.2792 2.65365 17.7561 3.3517 17.2485C6.14393 17.5023 8.11119 14.6466 7.22275 12.7428Z" fill="#5D8490"/>
</g>
<path d="M148.141 34.8856C155.066 34.8856 160.24 30.1257 160.24 23.4619C160.24 16.6076 155.066 12.0762 148.141 12.0762C140.95 12.0762 136.004 17.0265 136.004 23.4619C136.004 30.3542 141.178 34.8856 148.141 34.8856ZM148.141 15.4271C152.821 15.4271 156.473 18.702 156.473 23.4619C156.473 28.0314 153.277 31.5347 148.141 31.5347C143.461 31.5347 139.77 28.0695 139.77 23.4619C139.77 18.702 143.385 15.4271 148.141 15.4271Z" fill="#82B0BF"/>
<path d="M111.995 28.6024C113.822 32.5626 117.855 34.8855 123.486 34.8855C125.997 34.8855 129.079 34.1239 131.286 32.7911C131.971 32.3722 132.617 31.6487 132.617 30.4683V24.4137C132.617 23.4998 131.856 22.7763 130.981 22.7763H124.589C123.676 22.7763 122.953 23.4998 122.953 24.3375C122.953 25.2134 123.676 25.9749 124.589 25.9749H129.231V29.8971C127.899 30.9252 125.655 31.5345 123.562 31.5345C118.311 31.5345 114.773 28.412 114.773 23.4617C114.773 23.0428 114.773 22.662 114.811 22.2812L111.995 28.6024Z" fill="#82B0BF"/>
<path d="M123.448 15.4271C125.084 15.4271 126.454 15.7318 127.861 16.2649C128.09 16.3791 128.318 16.3791 128.622 16.3791C129.231 16.3791 129.764 16.0745 130.068 15.4652C130.182 15.2748 130.258 15.0464 130.258 14.8179C130.258 14.2086 129.878 13.6374 129.307 13.3328C127.443 12.5331 125.769 12.0762 123.029 12.0762C121.621 12.0762 120.29 12.2285 119.11 12.5712L116.713 18.0546C118.273 16.3791 120.594 15.4271 123.448 15.4271Z" fill="#82B0BF"/>
<path d="M105.755 29.0595L91.982 12.8377C91.6015 12.3427 91.1069 12 90.2698 12C89.1664 12 88.3674 12.7616 88.3674 13.942V33.134C88.3674 34.124 89.1664 34.8856 90.0796 34.8856C90.9547 34.8856 91.7918 34.124 91.7918 33.134V17.9404L105.223 33.6671L109.18 24.6042V13.7897C109.18 12.8377 108.343 12 107.468 12C106.592 12 105.755 12.8377 105.755 13.7897V29.0595Z" fill="#DBDBDB"/>
<path d="M76.915 13.8659V33.2101C76.915 34.1621 77.7521 34.9999 78.7413 34.9999C79.7306 34.9999 80.5296 34.1621 80.5296 33.2101V13.8659C80.5296 12.8758 79.7306 12.0762 78.7413 12.0762C77.7521 12.0762 76.915 12.8758 76.915 13.8659Z" fill="#DBDBDB"/>
<path d="M53.4774 13.8659V33.2101C53.4774 34.1621 54.2764 34.9999 55.3037 34.9999C56.2929 34.9999 57.13 34.1621 57.13 33.2101V13.8659C57.13 12.8758 56.2929 12.0762 55.3037 12.0762C54.2764 12.0762 53.4774 12.8758 53.4774 13.8659Z" fill="#DBDBDB"/>
<path d="M67.4791 34.2383C67.8977 34.6952 68.4303 34.9999 69.1152 34.9999C70.1425 34.9999 70.8654 34.1621 70.8654 33.2482C70.8654 32.8294 70.6752 32.4105 70.3708 31.9916L61.848 22.7384L69.6098 15.0083C70.0664 14.5513 70.2566 14.0944 70.2566 13.6374C70.2566 12.7997 69.6098 12.0762 68.6967 12.0762C68.0118 12.0762 67.4791 12.3427 67.0606 12.7997L58.652 21.7102C58.3095 22.091 58.0812 22.548 58.0812 23.0811C58.0812 23.4999 58.2334 23.9569 58.5759 24.3377L67.4791 34.2383Z" fill="#DBDBDB"/>
<path d="M42.101 13.8659V33.2101C42.101 34.1621 42.9 34.9999 43.9273 34.9999C44.9165 34.9999 45.7155 34.1621 45.7155 33.2101V13.8659C45.7155 12.8758 44.9165 12.0762 43.9273 12.0762C42.9 12.0762 42.101 12.8758 42.101 13.8659Z" fill="#DBDBDB"/>
<path d="M16 13.9801C16 14.2467 16.038 14.4752 16.1522 14.7417L24.8652 33.7052C25.2837 34.6191 25.8545 34.9999 26.7296 34.9999C27.6427 34.9999 28.1373 34.6191 28.5178 33.7052L37.0406 14.5132C37.1928 14.2848 37.2308 14.0182 37.2308 13.7517C37.2308 12.8758 36.546 12.1143 35.4426 12.1143C34.7197 12.1143 34.0728 12.5331 33.7685 13.1805L26.8437 29.783L19.5385 13.1805C19.2341 12.5331 18.5873 12.1143 17.8644 12.1143C16.799 12.1143 16 12.9901 16 13.9801Z" fill="#DBDBDB"/>
</svg>
