<svg width="95" height="15" viewBox="0 0 95 15" fill="none" xmlns="http://www.w3.org/2000/svg">
<path d="M86.1607 14.9222C90.6759 14.9222 94.0499 11.8185 94.0499 7.4734C94.0499 3.00413 90.6759 0.0494385 86.1607 0.0494385C81.4718 0.0494385 78.2466 3.27725 78.2466 7.4734C78.2466 11.9675 81.6206 14.9222 86.1607 14.9222ZM86.1607 2.23442C89.2122 2.23442 91.5938 4.36974 91.5938 7.4734C91.5938 10.4529 89.5099 12.7372 86.1607 12.7372C83.1091 12.7372 80.7027 10.4777 80.7027 7.4734C80.7027 4.36974 83.0595 2.23442 86.1607 2.23442Z" fill="#52707A"/>
<path d="M62.5923 10.8254C63.7831 13.4076 66.4129 14.9222 70.0846 14.9222C71.722 14.9222 73.7315 14.4256 75.1704 13.5566C75.617 13.2835 76.0388 12.8117 76.0388 12.042V8.09418C76.0388 7.49827 75.5426 7.02652 74.972 7.02652H70.8041C70.2086 7.02652 69.7373 7.49827 69.7373 8.04452C69.7373 8.61559 70.2086 9.11218 70.8041 9.11218H73.8308V11.6696C72.9624 12.34 71.4987 12.7373 70.1342 12.7373C66.7106 12.7373 64.4033 10.7013 64.4033 7.47344C64.4033 7.20032 64.4033 6.95203 64.4282 6.70374L62.5923 10.8254Z" fill="#52707A"/>
<path d="M70.0597 2.23442C71.1264 2.23442 72.0196 2.43305 72.9375 2.78066C73.0864 2.85515 73.2352 2.85515 73.4337 2.85515C73.8306 2.85515 74.178 2.65651 74.3764 2.25925C74.4509 2.1351 74.5005 1.98612 74.5005 1.83715C74.5005 1.43988 74.2524 1.06744 73.8802 0.868805C72.6646 0.34739 71.573 0.0494385 69.7868 0.0494385C68.8688 0.0494385 68.0005 0.148756 67.2314 0.372219L65.6685 3.94764C66.6856 2.85515 68.199 2.23442 70.0597 2.23442Z" fill="#52707A"/>
<path d="M58.5237 11.1235L49.5429 0.546245C49.2948 0.223464 48.9723 0 48.4265 0C47.707 0 47.186 0.496586 47.186 1.26629V13.7803C47.186 14.4258 47.707 14.9224 48.3024 14.9224C48.873 14.9224 49.4188 14.4258 49.4188 13.7803V3.87337L58.1764 14.1279L60.7565 8.2185V1.16698C60.7565 0.546245 60.2107 0 59.6401 0C59.0695 0 58.5237 0.546245 58.5237 1.16698V11.1235Z" fill="#2D4952"/>
<path d="M39.7183 1.21678V13.8301C39.7183 14.4508 40.2641 14.997 40.9091 14.997C41.5541 14.997 42.0751 14.4508 42.0751 13.8301V1.21678C42.0751 0.57122 41.5541 0.0498047 40.9091 0.0498047C40.2641 0.0498047 39.7183 0.57122 39.7183 1.21678Z" fill="#2D4952"/>
<path d="M24.436 1.21678V13.8301C24.436 14.4508 24.957 14.997 25.6269 14.997C26.2719 14.997 26.8177 14.4508 26.8177 13.8301V1.21678C26.8177 0.57122 26.2719 0.0498047 25.6269 0.0498047C24.957 0.0498047 24.436 0.57122 24.436 1.21678Z" fill="#2D4952"/>
<path d="M33.5658 14.5005C33.8387 14.7984 34.186 14.997 34.6326 14.997C35.3024 14.997 35.7738 14.4508 35.7738 13.8549C35.7738 13.5818 35.6498 13.3087 35.4513 13.0355L29.8941 7.00201L34.9551 1.96166C35.2528 1.66371 35.3769 1.36576 35.3769 1.06781C35.3769 0.521561 34.9551 0.0498047 34.3597 0.0498047C33.9131 0.0498047 33.5658 0.22361 33.2929 0.521561L27.8101 6.33162C27.5868 6.57991 27.438 6.87786 27.438 7.22547C27.438 7.49859 27.5372 7.79655 27.7605 8.04484L33.5658 14.5005Z" fill="#2D4952"/>
<path d="M17.0181 1.21678V13.8301C17.0181 14.4508 17.5391 14.997 18.2089 14.997C18.8539 14.997 19.3749 14.4508 19.3749 13.8301V1.21678C19.3749 0.57122 18.8539 0.0498047 18.2089 0.0498047C17.5391 0.0498047 17.0181 0.57122 17.0181 1.21678Z" fill="#2D4952"/>
<path d="M0 1.29403C0 1.46783 0.024809 1.61681 0.0992359 1.79061L5.78049 14.1556C6.05339 14.7515 6.42553 14.9998 6.99613 14.9998C7.59155 14.9998 7.91407 14.7515 8.16216 14.1556L13.7194 1.64164C13.8186 1.49266 13.8434 1.31886 13.8434 1.14505C13.8434 0.573979 13.3969 0.0773926 12.6774 0.0773926C12.206 0.0773926 11.7843 0.350515 11.5858 0.772613L7.07056 11.5982L2.30724 0.772613C2.10876 0.350515 1.68701 0.0773926 1.21564 0.0773926C0.520989 0.0773926 0 0.648466 0 1.29403Z" fill="#2D4952"/>
</svg>
